<?xml version="1.0" encoding="UTF-8" standalone="no"?>
<!-- Created with Inkscape (http://www.inkscape.org/) -->

<svg
   xmlns:dc="http://purl.org/dc/elements/1.1/"
   xmlns:cc="http://creativecommons.org/ns#"
   xmlns:rdf="http://www.w3.org/1999/02/22-rdf-syntax-ns#"
   xmlns:svg="http://www.w3.org/2000/svg"
   xmlns="http://www.w3.org/2000/svg"
   xmlns:sodipodi="http://sodipodi.sourceforge.net/DTD/sodipodi-0.dtd"
   xmlns:inkscape="http://www.inkscape.org/namespaces/inkscape"
   width="64px"
   height="64px"
   id="svg2815"
   version="1.1"
   inkscape:version="0.47 r22583"
   sodipodi:docname="Postalveolar.svg">
  <defs
     id="defs2817">
    <inkscape:perspective
       sodipodi:type="inkscape:persp3d"
       inkscape:vp_x="0 : 32 : 1"
       inkscape:vp_y="0 : 1000 : 0"
       inkscape:vp_z="64 : 32 : 1"
       inkscape:persp3d-origin="32 : 21.333333 : 1"
       id="perspective2823" />
  </defs>
  <sodipodi:namedview
     id="base"
     pagecolor="#ffffff"
     bordercolor="#666666"
     borderopacity="1.0"
     inkscape:pageopacity="0.0"
     inkscape:pageshadow="2"
     inkscape:zoom="15.556349"
     inkscape:cx="43.655114"
     inkscape:cy="39.296904"
     inkscape:current-layer="layer1"
     showgrid="true"
     inkscape:document-units="px"
     inkscape:grid-bbox="true"
     inkscape:window-width="1280"
     inkscape:window-height="964"
     inkscape:window-x="-4"
     inkscape:window-y="-4"
     inkscape:window-maximized="1" />
  <metadata
     id="metadata2820">
    <rdf:RDF>
      <cc:Work
         rdf:about="">
        <dc:format>image/svg+xml</dc:format>
        <dc:type
           rdf:resource="http://purl.org/dc/dcmitype/StillImage" />
        <dc:title></dc:title>
      </cc:Work>
    </rdf:RDF>
  </metadata>
  <g
     id="layer1"
     inkscape:label="Layer 1"
     inkscape:groupmode="layer">
    <path
       style="fill:#000000;fill-opacity:1;stroke:#282a2d;stroke-width:0.12856486;stroke-opacity:1"
       d="m 29.771488,57.074982 c 0.62596,-3.101068 0.613564,-3.754202 -0.127237,-6.704127 -0.320789,-1.277402 -0.725763,-2.60378 -0.899942,-2.947509 -0.42527,-0.839227 -1.1083,-1.496649 -1.97694,-1.902818 -1.089951,-0.50965 -3.210254,-0.478334 -6.567927,0.09701 -2.761771,0.473233 -4.719719,0.566372 -5.913983,0.281325 -1.680663,-0.401139 -3.029562,-1.499409 -3.765505,-3.065867 -0.8014666,-1.705923 -0.5992278,-4.314229 0.508305,-6.555703 0.50837,-1.02886 0.615142,-3.327108 1.232749,-3.646485 0.474076,-0.245154 1.800882,0.945509 2.073714,1.361903 0.309759,0.472753 -0.627805,1.047906 -0.627805,1.904534 0.455146,1.265902 0.410196,0.56926 1.386927,0.813671 0.742468,-0.215841 0.798676,-2.128636 0.798676,-2.541906 0,-0.302078 0.538849,-0.81277 1.490727,2.078465 3.161323,-0.05546 3.195102,-2.239311 3.50704,-3.038683 0.496403,-1.272085 1.169536,-6.364335 2.034306,-6.044062 0.850721,0.315071 0.414184,1.331092 2.331201,2.223969 7.144831,0.358422 9.317459,-1.013786 14.387353,1.842115 l 1.508816,2.213154 c 0.08551,0.625757 0.117023,1.44022 0.07002,1.809917 -0.332495,2.615235 -1.435984,8.302979 -2.001863,10.318257 -0.34619,1.253048 -1.108575,1.961282 -1.145752,3.046982 0.815535,-1.799713 1.63504,-3.040558 2.558588,-4.272063 0.03718,0 -0.126858,2.968242 -0.521656,4.081935 -0.987243,2.784949 -0.355198,3.557097 -0.577873,4.596194 -0.313756,1.464136 -0.364792,4.669025 -0.120791,7.585327 -0.775299,12.352737 -12.259729,14.843065 -9.641148,-3.535535 z"
       id="path2939"
       sodipodi:nodetypes="csssssssssccscsscccscccsscc" />
    <path
       style="fill:#000000;fill-opacity:1;stroke:#282a2d;stroke-width:0.12856486;stroke-opacity:1"
       d="M 51.042067,67.806783 C 49.075174,63.952219 49.252388,59.045748 49.296447,54.800423 49.405089,48.354719 49.157413,45.514191 48.289693,43.254259 46.524688,35.924856 45.837925,29.223265 41.344906,22.876727 40.98163,22.487818 40.325729,21.69332 39.887348,21.111175 c -1.005556,-1.335326 -1.537035,-1.850889 -2.444986,-2.37177 -1.561527,-0.639057 -2.807773,-0.199547 -4.04238,-1.550143 -1.112522,-1.654558 -1.560965,-1.870623 -3.17248,-2.38856 -4.662477,-1.44804 -9.273367,0.359128 -13.411655,2.518611 -2.302867,1.934754 -4.617451,4.182334 -6.065922,4.869726 -1.18947,0.564479 -1.6355053,-0.0059 -1.0159914,-0.933573 0.5055024,-0.756965 1.1031174,-1.350123 3.0663444,-3.043472 2.332941,-2.012242 3.298625,-3.071379 4.655648,-5.106197 43.655999,-57.625015 154.319704,47.576056 33.586141,54.700986 z"
       id="path2929"
       sodipodi:nodetypes="ccccsccccssscc" />
    <path
       style="fill:#000000;fill-opacity:1;stroke:#282a2d;stroke-width:0.12856486;stroke-opacity:1"
       d="m 11.987904,28.671755 c 0.371561,-1.261721 -0.150217,-1.994462 -0.977569,-2.915842 -1.7593726,-1.169051 -0.194284,-2.519767 0.944668,-2.754317 5.167334,-0.509059 7.799412,0.2208 11.137149,-0.635299 4.556332,-0.654781 9.286382,-0.416668 13.899447,-0.125403 2.519053,-0.310928 6.753452,9.382897 3.411514,7.449772 -0.396447,-0.229323 -3.52662,-3.907961 -8.825679,-4.889078 -4.505323,-0.799721 -5.453874,0.116184 -10.580317,1.832051 -0.512937,0.170871 -0.672812,1.094531 -1.028442,1.191094 -1.399892,0.380108 -3.574572,0.0049 -3.860174,2.123061 -0.335609,0.489346 -0.470682,0.137294 -0.924264,-2.846351 -0.893645,-1.377662 -1.416969,-0.242184 -1.413184,1.175463 0.312813,1.47164 0.28971,2.968807 -1.236579,3.196581 -1.684582,-0.03369 -0.06437,-1.344916 -0.54657,-2.801732 z"
       id="path2933"
       sodipodi:nodetypes="cccccsccsccccc" />
    <path
       style="fill:#000000;fill-opacity:1;stroke:#282a2d;stroke-width:0.12856486;stroke-opacity:1"
       d="m 46.490959,66.117692 c -0.50043,-0.276097 -0.996666,-0.821218 -1.22502,-1.345697 -0.249031,-0.571966 -0.248949,-0.604959 0.01185,-4.740021 0.169392,-2.685822 0.456824,-5.409215 0.773433,-7.328197 0.245062,-1.48533 0.671489,-2.779557 1.334343,-4.049794 l 0.301903,-0.578542 0.108854,0.51426 c 0.05987,0.282842 0.09997,4.123522 0.08911,8.534844 -0.02045,8.308187 -0.01917,8.287177 -0.541041,8.917837 -0.212273,0.256525 -0.481854,0.280312 -0.853432,0.07531 l 0,0 z"
       id="path2941"
       sodipodi:nodetypes="cssscccsscc" />
    <path
       style="fill:#ff0000;fill-opacity:1;stroke:#ff0000;stroke-width:0.06428243;stroke-opacity:1"
       d="m 23.547255,27.627045 c -0.369045,-0.570646 -0.708678,-0.703736 -1.014765,-0.397649 -0.08839,0.08839 -0.172495,0.160706 -0.186904,0.160706 -0.05678,0 -0.160085,-0.497973 -0.160032,-0.771389 l 5.6e-5,-0.289271 0.974936,-0.346214 c 1.064294,-0.377945 1.069479,-0.377951 1.327963,-0.0013 0.12614,0.183801 0.146304,0.280884 0.125582,0.604651 -0.0242,0.37821 -0.332676,1.301895 -0.46659,1.397159 -0.18713,0.133121 -0.343622,0.04013 -0.600246,-0.356685 l 0,0 z"
       id="path3113" />
  </g>
</svg>
