<?xml version="1.0" encoding="UTF-8" standalone="no"?>
<!-- Created with Inkscape (http://www.inkscape.org/) -->
<svg
   xmlns:dc="http://purl.org/dc/elements/1.1/"
   xmlns:cc="http://web.resource.org/cc/"
   xmlns:rdf="http://www.w3.org/1999/02/22-rdf-syntax-ns#"
   xmlns:svg="http://www.w3.org/2000/svg"
   xmlns="http://www.w3.org/2000/svg"
   xmlns:sodipodi="http://sodipodi.sourceforge.net/DTD/sodipodi-0.dtd"
   xmlns:inkscape="http://www.inkscape.org/namespaces/inkscape"
   id="svg2"
   sodipodi:version="0.32"
   inkscape:version="0.45.1"
   width="288"
   height="298"
   version="1.0"
   sodipodi:docbase="/home/liftarn/Bilder"
   sodipodi:docname="Alveolar.svg"
   inkscape:output_extension="org.inkscape.output.svg.inkscape">
  <metadata
     id="metadata7">
    <rdf:RDF>
      <cc:Work
         rdf:about="">
        <dc:format>image/svg+xml</dc:format>
        <dc:type
           rdf:resource="http://purl.org/dc/dcmitype/StillImage" />
      </cc:Work>
    </rdf:RDF>
  </metadata>
  <defs
     id="defs5" />
  <sodipodi:namedview
     inkscape:window-height="627"
     inkscape:window-width="910"
     inkscape:pageshadow="2"
     inkscape:pageopacity="0.0"
     guidetolerance="10.0"
     gridtolerance="10.0"
     objecttolerance="10.0"
     borderopacity="1.0"
     bordercolor="#666666"
     pagecolor="#ffffff"
     id="base"
     inkscape:zoom="1.1294794"
     inkscape:cx="263.86336"
     inkscape:cy="177.60815"
     inkscape:window-x="0"
     inkscape:window-y="25"
     inkscape:current-layer="svg2" />
  <path
     style="fill:#000000"
     d="M 190.75,289.467 C 190.3375,289.02682 190,287.54372 190,286.17123 C 190,283.14907 187.62209,274.89049 184.10381,265.69351 C 182.35164,261.11324 179.74557,256.93216 176.13598,252.91022 C 167.37293,243.14612 165.10865,242.38785 139,240.47409 C 128.275,239.68794 115.675,238.60323 111,238.06363 C 106.325,237.52402 99.125,236.84164 95,236.54724 C 84.504988,235.7982 72.48773,233.54135 65.967594,231.09494 C 59.303068,228.59434 53.029739,222.54059 49.807006,215.5 C 47.727393,210.95674 47.51749,209.03843 47.509163,194.5 C 47.500845,179.97608 47.292426,178.06685 45.25,173.80486 C 42.340304,167.73312 42.344147,162.874 45.261327,159.48258 C 49.647372,154.3835 65.927153,155.1002 71.113386,160.62069 L 73.368492,163.02114 L 76.076322,160.42688 C 80.566338,156.12517 82.654274,157.2986 87.772185,167 C 90.238451,171.675 92.424946,175.68881 92.631061,175.91958 C 93.262605,176.62665 103.27851,171.62533 105.48725,169.5 C 109.51432,165.625 111.00022,162.19176 110.99023,156.78518 C 110.97964,151.05418 107.90069,143.42804 103.8097,139 C 100.14441,135.03272 89.816666,127.4261 86.134435,125.98176 C 83.080981,124.78405 82.671884,124.8396 81.723049,126.58081 C 79.648724,130.38741 72.104292,137.16673 70.323964,136.82387 C 68.831972,136.53654 66.90011,133.95744 65.75859,130.72894 C 65.608645,130.30486 62.564121,131.53214 58.992982,133.45623 C 52.191345,137.12087 47.827972,137.79 43.523076,135.82856 C 39.968217,134.20886 39.377524,130.85763 41.84104,126.28575 C 47.628065,115.54597 49.093593,111.61265 48.800523,107.60725 L 48.5,103.5 L 39,103.72653 C 33.775,103.85113 27.772061,104.00612 25.660135,104.07097 C 15.455285,104.38429 10.188798,100.62393 7.9888094,91.453352 C 6.2761475,84.314176 7.0766974,81.277955 12.977306,72.533631 C 15.739788,68.43981 18,64.736395 18,64.30382 C 18,63.871244 19.500759,61.263422 21.335019,58.508659 C 30.616799,44.568929 40.616125,24.097626 42.953417,14.25 C 43.828597,10.562633 44.690672,8.9926617 45.849741,8.9753453 C 46.757383,8.9617852 53.35,8.773896 60.5,8.5578138 C 67.65,8.3417317 111.8625,7.8462622 158.75,7.4567706 C 239.79679,6.7835198 244,6.8355707 244,8.5124713 C 244,9.4825983 245.74516,12.169611 247.87813,14.48361 C 251.40641,18.31134 260,34.221885 260,36.92656 C 260,37.544433 260.91329,40.626223 262.02952,43.774983 C 264.75677,51.468188 267.81473,71.688906 269.47379,93 C 271.09326,113.80274 270.78174,127.79431 267.60349,177 C 267.37258,180.575 266.68345,188 266.0721,193.5 C 264.98152,203.31136 263.65647,224.09354 263.68115,231 C 263.7135,240.05216 265.29341,258.06331 266.09878,258.56105 C 266.59445,258.86739 267,260.63992 267,262.5 C 267,264.36008 267.45,266.16008 268,266.5 C 268.55,266.83992 269,268.1951 269,269.51151 C 269,270.82792 270.82367,275.36769 273.05261,279.59989 C 275.28514,283.83892 276.72256,287.67744 276.25318,288.14682 C 275.15762,289.24238 191.74639,290.53026 190.75,289.467 z "
     id="path2183" />
  <path
     style="fill:#c0c0c0;fill-opacity:1"
     d="M 238.5 9.71875 L 162.5 10.5 C 120.7 10.923927 77.789899 11.536097 67.15625 11.875 L 47.84375 12.5 L 42.8125 24 C 40.059369 30.325 37.372769 36.015798 36.84375 36.65625 C 36.314731 37.296703 34.277526 41.121703 32.3125 45.15625 C 30.347472 49.190798 27.681675 53.936697 26.375 55.6875 C 25.068326 57.438304 24 59.095199 24 59.375 C 24 59.6548 21.513244 63.971386 18.46875 68.96875 C 11.616946 80.215594 10.701314 82.456065 10.8125 87.53125 C 10.903926 91.704485 12.4478 97 13.59375 97 C 13.953203 97 16.045407 95.400984 18.21875 93.4375 C 22.726332 89.365169 28.075147 86.82997 36 85.0625 C 39.025 84.387838 43.043078 83.363326 44.9375 82.78125 C 47.105851 82.115008 67.976367 81.606069 101.28125 81.375 C 130.37869 81.173119 154.65231 80.693826 155.21875 80.34375 C 155.78519 79.993675 158.78331 79.537272 161.875 79.3125 C 164.96671 79.087731 170.79742 78.23651 174.84375 77.4375 C 178.89008 76.638491 183.91201 76 186 76 C 188.088 76 194.24058 75.089403 199.65625 73.96875 C 221.77314 69.392156 226.37163 68.825676 238 69.25 C 247.94867 69.613028 250.26096 70.042152 255.21875 72.40625 C 258.37073 73.909261 261.21327 75.548004 261.53125 76.0625 C 261.84923 76.576997 262.60659 77 263.1875 77 C 263.88298 77 263.99585 75.036067 263.5625 71.25 C 261.93109 56.996574 257.52447 40.283879 252.5 29.40625 C 248.70816 21.197192 248.90171 21.525238 242.8125 14.625 L 238.5 9.71875 z M 235.03125 72.625 C 226.93992 72.673825 216.77049 74.219226 202.5 77.46875 C 198.65 78.345427 191.675 79.491266 187 80 C 182.325 80.508729 177.15 81.1928 175.5 81.53125 C 173.85 81.8697 170.21616 82.283843 167.40625 82.4375 C 164.59634 82.59116 161.82436 82.988776 161.25 83.34375 C 160.67564 83.69872 157.78448 83.992804 154.84375 83.96875 C 140.36897 83.850351 61.395704 85.021234 53.78125 85.46875 C 41.302404 86.202157 36.601219 87.313673 27.34375 91.71875 C 23.721093 93.442555 17.333361 99.677109 18.25 100.59375 C 19.590881 101.93463 28.902631 101.74716 36.03125 100.25 C 44.321827 98.508806 47.97637 98.976371 51.15625 102.15625 C 52.93248 103.93248 53.176831 105.06162 52.71875 109.5 C 52.161378 114.90043 51.786279 115.74138 46.25 124.375 C 43.080447 129.3178 42.304212 131.99172 43.65625 133.34375 C 44.671097 134.3586 49.321551 134.1341 52.84375 132.90625 C 54.575823 132.30244 56 131.40245 56 130.90625 C 56 130.41005 56.469458 130 57.03125 130 C 57.593043 130 59.843042 128.82309 62.03125 127.375 C 65.838018 124.8558 66 124.51058 66 119.4375 C 66 113.01436 67.382217 109 69.59375 109 C 70.839994 109 71.071266 109.54165 70.53125 111.25 C 69.130569 115.68107 68.772275 129.67473 70 131.96875 L 71.1875 134.1875 L 74.1875 131.34375 C 75.835413 129.77549 77.957504 126.925 78.9375 125 C 79.917494 123.075 82.130816 119.025 83.84375 116 C 85.556686 112.975 86.958786 109.69851 86.96875 108.71875 C 86.987478 106.87683 89.58966 105.27716 90.71875 106.40625 C 91.070861 106.75836 90.838334 107.56791 90.1875 108.21875 C 85.771524 112.63472 96.308008 111.11627 106.25 105.90625 C 107.20504 105.40577 108.8496 105 109.90625 105 C 110.96291 105 120.51794 102.47458 131.15625 99.375 C 141.79456 96.275415 152.3 93.389574 154.5 92.96875 C 156.7 92.547926 161.65 91.455186 165.5 90.53125 C 175.25064 88.191263 194.67658 86.83432 213 87.21875 C 232.62014 87.630387 235.2562 88.62281 241.0625 98.0625 C 243.23541 101.59514 244.99969 105.09034 245 105.8125 C 245.00031 106.53466 246.38628 110.02216 248.09375 113.5625 C 251.48885 120.60203 252.73123 121.19955 257.875 118.25 C 263.98061 114.74892 267.91793 95.3627 264.125 87.40625 C 263.36391 85.809714 262.25686 83.4875 261.6875 82.25 C 261.11813 81.0125 260.1596 80 259.53125 80 C 258.90289 80 257.50371 79.2125 256.4375 78.25 C 253.16391 75.294836 249.7914 74.027761 242.5 73.0625 C 240.18737 72.756345 237.72836 72.608725 235.03125 72.625 z M 56.78125 159.96875 C 53.449655 159.94938 50.351357 160.64864 49 162 C 46.843693 164.15631 46.22975 170.39855 48.0625 171.53125 C 50.612956 173.10752 51.262415 178.15052 51.09375 195 L 50.90625 212.5 L 53.90625 217.21875 C 55.578318 219.85005 58.560672 222.80937 60.6875 223.96875 C 62.778388 225.10853 65.85 226.87807 67.5 227.875 C 71.754415 230.44552 88.65662 233.11843 109 234.46875 C 110.9314 234.59695 113.4064 234.9622 114.5 235.28125 C 115.5936 235.6003 120.775 236.14633 126 236.46875 C 159.32651 238.52521 162.28911 239.03637 172.0625 244.5 C 174.95719 246.11821 181.57748 253.73518 184.65625 259 C 187.12936 263.22915 191.46289 274.96448 194.46875 285.53125 C 194.92826 287.1466 211 287.32896 211 285.71875 C 211 285 210.61411 283.96 210.125 283.4375 C 208.37466 281.56763 206 271.07025 206 265.15625 C 206 253.88445 213.81895 222.68395 217.4375 219.5 C 218.98392 218.13931 224 202.53951 224 199.09375 C 224 197.56703 223.11989 195.51646 222.03125 194.53125 C 220.11888 192.80059 219.97673 192.81946 218.03125 195.125 C 216.92376 196.43746 214.25021 201.13488 212.09375 205.5625 C 209.3705 211.1538 207.36018 213.97918 205.53125 214.8125 C 201.98778 216.427 200.45076 216.32576 198.46875 214.34375 C 197.08666 212.96167 196.91851 211.52358 197.5 206.09375 C 197.88639 202.48577 198.82606 198.65853 199.59375 197.5625 C 200.36145 196.46646 201 194.69713 201 193.65625 C 201 191.82239 200.91479 191.81981 198.25 193.5625 C 196.7375 194.55161 194.8847 195.99296 194.125 196.75 C 193.3653 197.50703 191.0028 198.85942 188.875 199.78125 C 186.7472 200.70307 185 201.82975 185 202.25 C 185 202.67026 184.1775 203 183.1875 203 C 182.1975 203 180.96 203.40454 180.4375 203.90625 C 177.98955 206.25679 162.43263 213.29961 152.9375 216.34375 C 139.8903 220.52667 124.21606 222.37046 106.5 221.84375 C 94.945353 221.50024 92.860135 221.1762 87.71875 218.78125 C 79.483179 214.94498 78.062571 210.87159 77.5625 189.4375 C 77.422228 183.42515 76.767605 176.78893 76.09375 174.6875 C 74.569515 169.93415 68.55115 163.13129 64.28125 161.34375 C 62.100407 160.43076 59.372491 159.98382 56.78125 159.96875 z M 80.5 162 C 77.677317 162 77.268443 167.10807 79.625 172.90625 C 81.931635 178.5816 84.221334 180.39827 87.15625 178.875 C 88.530236 178.16188 88.683527 177.40881 87.90625 174.59375 C 86.533477 169.62197 82.049284 162 80.5 162 z M 89.40625 182.71875 C 89.162858 182.71583 88.889703 182.73575 88.59375 182.75 C 88.255518 182.76629 87.884067 182.80847 87.46875 182.84375 C 85.2825 183.02946 83.160764 183.48495 82.75 183.875 C 81.326127 185.22707 81.457855 206.31994 82.90625 209 C 86.005316 214.73441 89.174369 216.45063 91.8125 213.8125 C 92.472497 213.1525 92.994971 211.915 93 211.0625 C 93.005032 210.21 94.115978 207.25 95.46875 204.5 C 98.793913 197.74039 98.714536 193.87448 95.125 189.78125 C 93.540681 187.9746 92.060682 185.6 91.84375 184.5 C 91.591336 183.22009 91.109992 182.73918 89.40625 182.71875 z M 240.21875 263.34375 C 238.3341 263.71621 238.33319 270.12198 240.5625 275.53125 C 244.36845 284.76615 245.19044 286 247.5625 286 L 249.875 286 L 246.9375 278.84375 C 245.31437 274.90761 244.06372 271.19511 244.15625 270.59375 C 244.38915 269.08013 242.3314 264.33934 241.125 263.59375 C 240.77967 263.38032 240.48799 263.29054 240.21875 263.34375 z "
     id="path2199" />
  <path
     style="fill:#ffffff;fill-opacity:1"
     d="M 206.625,89.84375 C 188.39121,89.835479 175.72212,91.076661 163.71875,94.0625 C 146.78052,98.275884 143.33981,99.162727 137,100.96875 C 133.425,101.98716 127.90688,103.40443 124.71875,104.09375 C 121.53062,104.78306 118.68808,105.70025 118.40625,106.15625 C 118.12442,106.61226 118.04861,107 118.25,107 C 118.7959,107 144.14219,111.89011 146.75,112.5 C 153.23216,114.33951 160.56696,116.03177 167,118.0625 C 175.67802,120.7089 189,126.74688 189,128.03125 C 189,128.35033 190.71078,129.38523 192.8125,130.3125 C 198.09566,132.64342 207.00151,142.30041 210.5,149.5 C 213.13093,154.91424 213.41542,156.50379 213.4375,165.71875 C 213.45381,172.53201 213.07604,176.33021 212.25,177.15625 C 211.56906,177.83718 211,178.96594 211,179.65625 C 211,180.34654 209.71229,183.75655 208.125,187.21875 C 202.60977,199.24859 201,203.89589 201,207.9375 C 201,215.94792 205.51932,212.15801 211.8125,198.875 C 214.05956,194.13213 216.63316,189.96963 217.53125,189.625 C 222.87107,187.57592 226.5282,190.36108 227.65625,197.3125 C 228.25398,200.99585 226.78954,206.09618 222.25,216 C 215.6913,230.30899 210.65296,248.23699 209.40625,261.6875 C 208.90769,267.06636 209.19431,269.98076 210.84375,275.5 C 214.3065,287.08687 214.19401,287 227.5,287 C 233.92583,287 239.15501,286.5582 239.5,286 C 239.83615,285.45609 239.46391,283.5436 238.6875,281.75 C 235.39807,274.15098 235,272.67088 235,268.125 C 235,264.36565 235.50643,262.87854 237.40625,261.09375 C 241.82053,256.94675 245.94626,260.22269 247.96875,269.5 C 249.18856,275.09542 251.34198,280.14564 254.21875,284.25 C 256.02503,286.82706 256.59078,287 263.5,287 C 267.55508,287 271.12368,286.57028 271.4375,286.0625 C 271.75133,285.55471 271.13517,283.64222 270.0625,281.8125 C 267.19563,276.92231 263,263.3252 263,258.9375 C 263,256.84349 262.55807,254.01063 262.03125,252.625 C 259.84201,246.86684 260.81727,211.96472 264.03125,180.5 C 264.53687,175.55 265.17384,165.425 265.46875,158 C 265.76367,150.575 266.27057,139.01607 266.59375,132.3125 C 266.91694,125.60892 266.88645,119.62529 266.5,119 C 266.02298,118.22817 264.99282,118.60893 263.3125,120.1875 C 261.34124,122.03942 259.72539,122.5 255.34375,122.5 C 250.39384,122.5 249.53167,122.15711 246.90625,119.21875 C 245.30137,117.42258 244,115.07572 244,113.96875 C 244,110.51444 237.12633,97.308227 233.9375,94.625 C 229.33955,90.756068 224.26909,89.851752 206.625,89.84375 z "
     id="path2195"
     sodipodi:nodetypes="csssssccsssssssssssssssssssssssssssssssssssc" />
  <path
     style="fill:#000000"
     d="M 224.34731,254.46269 C 224.02285,253.61717 224.51841,250.21313 225.44854,246.89816 C 226.37867,243.58319 227.30145,240.11248 227.49915,239.18547 C 227.69685,238.25846 229.01542,234.69644 230.4293,231.26987 C 233.60672,223.56935 233.61158,223 230.5,223 C 229.125,223 228,222.78668 228,222.52595 C 228,221.31141 240.61902,201.81321 241.5,201.66652 C 242.11251,201.56452 242.59696,206.45421 242.75023,214.2853 C 242.99821,226.95585 242.9818,227.06063 240.92209,225.9583 C 239.77898,225.34653 238.25461,225.07206 237.53458,225.34836 C 236.37637,225.7928 232.86019,235.90957 229.83556,247.5 C 227.6734,255.78543 225.77775,258.19035 224.34731,254.46269 z "
     id="path2177" />
  <path
     style="fill:#000000"
     d="M 239.8983,175.4057 C 236.89934,167.11958 231.7704,156.33058 229.13179,152.75772 C 226.46675,149.1491 226.33433,149.08914 225.17582,150.96635 C 222.96924,154.5418 222.39712,153.69981 216.69328,138.48267 C 214.75939,133.3233 213.42177,128.91517 213.7208,128.68683 C 214.38575,128.17904 226.37239,136.29795 231.26307,140.56872 L 234.8201,143.67488 L 232.41203,145.14277 L 230.00396,146.61066 L 232.82769,151.29864 C 236.71889,157.75883 243.05214,170.97365 242.87837,172.27018 C 242.79977,172.85667 243.33006,173.98142 244.0568,174.76963 C 245.79951,176.65976 245.57178,177.7163 243.23301,178.59172 C 241.63995,179.18803 241.07021,178.64369 239.8983,175.4057 z "
     id="path2175" />
  <path
     style="fill:#fe0000;fill-opacity:1"
     d="M 120,217.89678 C 125.78514,217.74792 132.76353,216.66412 145.5,213.93641 C 150.87105,212.78611 158.90462,209.68281 171.56572,203.86743 C 173.80187,202.84034 176.16437,202 176.81572,202 C 177.46708,202 178.9,201.1 180,200 C 181.1,198.9 183.03899,198 184.30887,198 C 186.85781,198 189.28463,196.39523 190.62568,193.82293 C 191.10655,192.90054 194.425,190.19286 198,187.80585 C 206.95428,181.82714 209.9444,176.37055 209.97664,165.95 C 209.98949,161.7975 209.62438,157.9725 209.16528,157.45 C 208.70619,156.9275 207.58305,154.46482 206.66942,151.97738 C 205.75578,149.48995 203.6564,145.97467 202.00413,144.16567 C 200.35186,142.35666 198.99693,140.56684 198.99317,140.18828 C 198.98941,139.80973 197.52691,138.55387 195.74317,137.39749 C 180.2354,127.34398 169.637,122 165.20625,122 C 163.70228,122 160.00312,121.07513 156.98588,119.94473 C 150.55008,117.53357 132.02049,113.57168 119.18988,111.8634 C 111.1698,110.7956 109.40418,110.86444 103.44613,112.47721 C 87.402844,116.81992 83.98878,119.418 90.187814,122.56669 C 98.189365,126.63094 109.26379,137.56143 112.73713,144.82295 C 116.04127,151.73073 115.94197,163.03323 112.53394,167.95103 C 111.1776,169.90822 109.07837,172.18241 107.86898,173.00478 C 106.6596,173.82715 104.84433,175.2875 103.83505,176.25 C 102.82577,177.2125 101.1368,178 100.08179,178 C 97.10129,178 95,179.07797 95,180.60699 C 95,181.37314 95.45,182 96,182 C 96.55,182 97,182.59015 97,183.31144 C 97,184.03273 97.829472,185.51321 98.843271,186.6014 C 102.40406,190.42346 103.53378,201.4053 100.58777,203.55948 C 99.714496,204.19803 99,205.21765 99,205.8253 C 99,206.43294 98.292669,209.0135 97.428153,211.55987 C 96.563637,214.10624 96.141248,216.47458 96.489511,216.82284 C 97.410653,217.74399 106.9956,218.83702 110.5,218.42055 C 112.15,218.22446 116.425,217.98876 120,217.89678 z "
     id="path2171" />
  <path
     style="fill:#000000"
     d="M 195.59053,122.97456 C 187.81745,118.82331 176.78676,114.23722 172.43519,113.34756 C 168.04006,112.44899 167.90152,112.49304 168.29664,114.66329 C 169.04919,118.79686 168.06062,118.55395 153.63975,111.06173 C 148.75034,108.52151 144.80674,106.14058 144.87618,105.7708 C 145.03058,104.94852 159.37103,102.9617 165.86323,102.86312 L 170.58504,102.79144 L 169.77765,105.49359 L 168.97026,108.19574 L 174.20553,109.79024 C 181.41993,111.98752 194.96878,117.57056 195.70717,118.65035 C 196.04118,119.13881 197.18786,119.61985 198.25534,119.71935 C 200.81517,119.95793 201.35288,120.89548 200.20056,123.11097 C 199.41567,124.62006 198.62803,124.59675 195.59053,122.97456 z "
     id="path2202"
     inkscape:transform-center-y="4.6164135"
     inkscape:transform-center-x="-5.0322809" />
</svg>
